Coordinates
version=1
nRows=9
nColumns=63
inDegrees=yes

Units are S.I. units (second, meters, Newtons, ...)
If the header above contains a line with 'inDegrees', this indicates whether rotational values are in degrees (yes) or radians (no).

endheader
time	pelvis_tilt	pelvis_list	pelvis_rotation	pelvis_tx	pelvis_ty	pelvis_tz	hip_flexion_r	hip_adduction_r	hip_rotation_r	knee_angle_r	knee_angle_r_beta	ankle_angle_r	subtalar_angle_r	mtp_angle_r	hip_flexion_l	hip_adduction_l	hip_rotation_l	knee_angle_l	knee_angle_l_beta	ankle_angle_l	subtalar_angle_l	mtp_angle_l	L5_S1_Flex_Ext	L5_S1_Lat_Bending	L5_S1_axial_rotation	L4_L5_Flex_Ext	L4_L5_Lat_Bending	L4_L5_axial_rotation	L3_L4_Flex_Ext	L3_L4_Lat_Bending	L3_L4_axial_rotation	L2_L3_Flex_Ext	L2_L3_Lat_Bending	L2_L3_axial_rotation	L1_L2_Flex_Ext	L1_L2_Lat_Bending	L1_L2_axial_rotation	L1_T12_Flex_Ext	L1_T12_Lat_Bending	L1_T12_axial_rotation	Abs_r3	Abs_r2	Abs_r1	Abs_t1	Abs_t2	neck_flexion	neck_bending	neck_rotation	arm_flex_r	arm_add_r	arm_rot_r	elbow_flex_r	pro_sup_r	wrist_flex_r	wrist_dev_r	arm_flex_l	arm_add_l	arm_rot_l	elbow_flex_l	pro_sup_l	wrist_flex_l	wrist_dev_l
      2.23728814	      1.09325340	     -2.56883360	     85.76636407	      0.26955563	      1.05706716	      0.20146550	      2.18659336	     -0.50489432	     -2.19393054	     17.13154899	      0.29900194	     29.74864154	      7.58805767	      0.00000000	      3.84604196	     -2.98276944	    -11.49120981	     18.07393443	      0.31544966	     37.29907493	      8.37668303	      0.00000000	     -0.19084967	     -0.85225248	      1.16852424	     -0.35442693	     -1.13349580	      1.24155700	     -0.31354693	     -2.07216669	      1.24155700	     -0.21812209	     -2.07216669	      1.02245871	     -0.17722301	     -1.73791326	      0.94942594	     -0.10905150	     -1.32013910	      0.87639318	     -1.36322012	     -9.64085054	      6.49898125	      0.00000000	      0.00000000	     23.36931084	      4.55569364	     11.33033320	     12.15702386	    -11.77908617	    143.99911271	      5.24127881	      2.14527112	     -5.67598408	     -8.71875467	      8.59784217	    -18.49952453	    175.15641526	      0.86458637	      2.53060857	     -7.31717585	     -9.06610901
      2.25423729	      1.13357665	     -2.42593634	     85.69034465	      0.27046315	      1.05732455	      0.20367015	      2.22106597	     -0.41336289	     -2.14885633	     17.26967381	      0.30141267	     29.82441096	      7.58128934	      0.00000000	      3.98490829	     -3.15311873	    -11.24287834	     18.40470213	      0.32122265	     37.17898943	      8.27017224	      0.00000000	     -0.24212553	     -0.89837941	      1.08567665	     -0.44965133	     -1.19484462	      1.15353144	     -0.39778804	     -2.18431971	      1.15353144	     -0.27672527	     -2.18431971	      0.94996707	     -0.22483777	     -1.83197530	      0.88211228	     -0.13835053	     -1.39158971	      0.81425749	     -1.72947848	    -10.16264761	      6.03820781	      0.00000000	      0.00000000	     21.34196232	      4.27277850	     10.75073511	     12.87755745	    -11.53505435	    143.84466697	      5.43206581	      2.04643738	     -5.77344229	     -8.73391691	      8.59368960	    -18.77480120	    175.04309961	      0.73087384	      2.51896565	     -7.60567097	     -9.18956325
      2.27118644	      1.22390821	     -2.34264243	     85.72691089	      0.27115920	      1.05731084	      0.20521053	      2.16878626	     -0.23699198	     -2.09295396	     17.13319365	      0.29903064	     30.08540245	      7.61859501	      0.00000000	      4.15385921	     -3.34422869	    -10.72926780	     18.69803173	      0.32634222	     37.25929305	      8.06435918	      0.00000000	     -0.26205390	     -0.93159329	      0.99848662	     -0.48666030	     -1.23901907	      1.06089204	     -0.43052835	     -2.26507591	      1.06089204	     -0.29950140	     -2.26507591	      0.87367579	     -0.24334325	     -1.89970503	      0.81127038	     -0.14973760	     -1.44303800	      0.74886497	     -1.87182480	    -10.53836956	      5.55328305	      0.00000000	      0.00000000	     19.17280493	      3.85720106	     10.10133265	     13.45429336	    -11.35844284	    143.45952002	      5.74501759	      1.90158094	     -5.89391768	     -8.75242260	      8.51978817	    -18.99383134	    174.65184491	      0.68438912	      2.40345908	     -7.94094022	     -9.40228360
      2.28813559	      1.39445498	     -2.38024863	     86.07149486	      0.27095057	      1.05702569	      0.20619879	      2.02573352	     -0.04286359	     -2.59626484	     16.63259940	      0.29029362	     30.47385877	      8.32864352	      0.00000000	      4.45877255	     -3.19250945	     -7.64623630	     18.81076483	      0.32830978	     36.94929416	      4.81779397	      0.00000000	     -0.25593049	     -0.94165036	      0.85018378	     -0.47528851	     -1.25239498	      0.90332027	     -0.42046820	     -2.28952869	      0.90332027	     -0.29250295	     -2.28952869	      0.74391081	     -0.23765705	     -1.92021342	      0.69077432	     -0.14623868	     -1.45861641	      0.63763784	     -1.82808587	    -10.65213721	      4.72846713	      0.00000000	      0.00000000	     17.32998792	      3.48565840	      9.95726944	     13.98505733	    -11.65176751	    137.25463332	      7.22018879	      2.12751929	     -5.69393761	     -9.02145095	      8.26564788	    -19.11584964	    172.01629947	      0.74750928	      2.61304974	     -7.92703796	     -9.92536355
      2.30508475	      1.45250404	     -2.29866088	     85.91441677	      0.27175502	      1.05677114	      0.20728583	      1.92917971	      0.08941061	     -2.19428144	     16.37610848	      0.28581701	     31.06055540	      8.62520783	      0.00000000	      4.52532202	     -3.33326778	     -7.41751701	     18.98710340	      0.33138747	     37.25090323	      4.84090254	      0.00000000	     -0.27381659	     -0.96368741	      0.83963152	     -0.50850478	     -1.28170425	      0.89210849	     -0.44985327	     -2.34310956	      0.89210849	     -0.31294498	     -2.34310956	      0.73467758	     -0.25426608	     -1.96515136	      0.68220061	     -0.15645880	     -1.49275179	      0.62972364	     -1.95584450	    -10.90142467	      4.66977863	      0.00000000	      0.00000000	     16.11861793	      3.28874328	     10.00361504	     14.27568733	    -11.56801439	    137.09484301	      7.17684245	      2.05551343	     -5.60244742	     -9.09229437	      8.40824923	    -19.23329458	    171.87199533	      0.77295255	      2.44462957	     -7.92719567	     -9.97023346
      2.32203390	      1.55409815	     -2.32959712	     85.59423265	      0.27236688	      1.05637153	      0.20734555	      1.70461881	      0.16319654	     -2.43530807	     15.72013753	      0.27436816	     31.41679290	      9.76623308	      0.00000000	      4.54963384	     -3.32472352	     -6.44968164	     18.94048247	      0.33057378	     37.38787698	      3.48817604	      0.00000000	     -0.24983357	     -0.96886790	      0.85840875	     -0.46396592	     -1.28859431	      0.91205930	     -0.41045157	     -2.35570541	      0.91205930	     -0.28553478	     -2.35570541	      0.75110766	     -0.23199545	     -1.97571542	      0.69745711	     -0.14275490	     -1.50077638	      0.64380657	     -1.78453619	    -10.96002746	      4.77421197	      0.00000000	      0.00000000	     14.64851224	      3.33501423	     10.78951014	     14.48436756	    -12.67012668	    124.78305476	     10.15827325	      2.84518776	     -4.73660019	     -8.95434842	      8.24072437	    -19.26727021	    170.45079346	      0.78209465	      2.31204251	     -7.66247482	    -10.23870737
      2.33898305	      1.44016226	     -2.42253499	     85.19605605	      0.27349394	      1.05601407	      0.20741706	      1.62737918	      0.09057219	     -2.07398363	     15.21916124	      0.26562447	     31.60104221	     10.15115291	      0.00000000	      4.65467859	     -3.24984534	     -6.40321472	     18.94129114	      0.33058790	     37.62912954	      3.30905469	      0.00000000	     -0.23014694	     -1.00427333	      0.92077293	     -0.42740589	     -1.33568353	      0.97832124	     -0.37810841	     -2.44179017	      0.97832124	     -0.26303494	     -2.44179017	      0.80567632	     -0.21371445	     -2.04791417	      0.74812801	     -0.13150596	     -1.55561938	      0.69057970	     -1.64391660	    -11.36054073	      5.12106283	      0.00000000	      0.00000000	     13.72999095	      3.36881699	     11.25456859	     14.53929447	    -12.71776412	    124.22488348	     10.31818767	      2.56390623	     -4.36995926	     -8.88390888	      8.27992501	    -19.41863815	    170.40293634	      0.76553359	      2.32282603	     -7.66613994	    -10.27299665
      2.35593220	      1.36119380	     -2.48164611	     84.45268029	      0.27425231	      1.05526087	      0.20754212	      1.71533210	     -0.08263794	     -1.91540974	     15.10439607	      0.26362144	     31.77919585	     11.08115431	      0.00000000	      4.60194881	     -3.07799671	     -6.18388704	     18.73763559	      0.32703344	     37.89095894	      2.49871218	      0.00000000	     -0.22759150	     -1.02317750	      1.07356371	     -0.42266017	     -1.36082608	      1.14066144	     -0.37391008	     -2.48775378	      1.14066144	     -0.26011433	     -2.48775378	      0.93936825	     -0.21134147	     -2.08646356	      0.87227052	     -0.13004578	     -1.58490195	      0.80517278	     -1.62566332	    -11.57438855	      5.97083930	      0.00000000	      0.00000000	     13.21808844	      3.50479177	     11.74130038	     12.55485692	    -16.05995604	     91.29391299	     17.62199769	     12.94058562	     -6.18087675	     -5.84799103	      8.42117317	    -19.35980786	    170.98426133	      0.73080193	      2.42319456	     -7.86918567	    -10.08731860
      2.37288136	      0.95852216	     -2.56440501	     83.66649668	      0.27571094	      1.05496210	      0.20738285	      1.84726768	     -0.52782692	     -1.50364373	     15.00889787	      0.26195468	     31.66512144	     11.57343274	      0.00000000	      4.49404971	     -2.63570315	     -6.42279447	     18.33660480	      0.32003413	     37.96288429	      2.14191505	      0.00000000	     -0.21086003	     -1.09087542	      1.21190638	     -0.39158817	     -1.45086430	      1.28765052	     -0.34642195	     -2.65235449	      1.28765052	     -0.24099193	     -2.65235449	      1.06041808	     -0.19580463	     -2.22451315	      0.98467393	     -0.12048542	     -1.68976602	      0.90892978	     -1.50615214	    -12.34020089	      6.74025969	      0.00000000	      0.00000000	     12.66325339	      3.79828293	     11.77948695	     12.36810913	    -16.17370415	     89.57639599	     18.05452803	     11.85924922	     -6.24106243	     -6.07221782	      8.41229799	    -19.55680281	    172.00660817	      0.70261804	      2.65854540	     -8.21635853	     -9.76056813
